<?xml version="1.0" encoding="UTF-8" standalone="no"?><svg xmlns="http://www.w3.org/2000/svg" xmlns:xlink="http://www.w3.org/1999/xlink" contentScriptType="application/ecmascript" contentStyleType="text/css" height="374px" preserveAspectRatio="none" style="width:390px;height:374px;" version="1.1" viewBox="0 0 390 374" width="390px" zoomAndPan="magnify"><defs><filter height="300%" id="f3p8u34" width="300%" x="-1" y="-1"><feGaussianBlur result="blurOut" stdDeviation="2.0"/><feColorMatrix in="blurOut" result="blurOut2" type="matrix" values="0 0 0 0 0 0 0 0 0 0 0 0 0 0 0 0 0 0 .4 0"/><feOffset dx="4.0" dy="4.0" in="blurOut2" result="blurOut3"/><feBlend in="SourceGraphic" in2="blurOut3" mode="normal"/></filter></defs><g><!--cluster Cloud--><path d="M87.5,122 C87.5,119 89.5,117 92.5,117 C95.5,117 97.5,119 97.5,122 C97.5,119 99.5,117 102.5,117 C105.5,117 107.5,119 107.5,122 C107.5,119 109.5,117 112.5,117 C115.5,117 117.5,119 117.5,122 C117.5,119 119.5,117 122.5,117 C125.5,117 127.5,119 127.5,122 C127.5,119 129.5,117 132.5,117 C135.5,117 137.5,119 137.5,122 C137.5,119 139.5,117 142.5,117 C145.5,117 147.5,119 147.5,122 C147.5,119 149.5,117 152.5,117 C155.5,117 157.5,119 157.5,122 C157.5,119 159.5,117 162.5,117 C165.5,117 167.5,119 167.5,122 C167.5,119 169.5,117 172.5,117 C175.5,117 177.5,119 177.5,122 C177.5,119 179.5,117 182.5,117 C185.5,117 187.5,119 187.5,122 C187.5,119 189.5,117 192.5,117 C195.5,117 197.5,119 197.5,122 C197.5,119 199.5,117 202.5,117 C205.5,117 207.5,119 207.5,122 C207.5,119 209.5,117 212.5,117 C215.5,117 217.5,119 217.5,122 C217.5,119 219.5,117 222.5,117 C225.5,117 227.5,119 227.5,122 C227.5,119 229.5,117 232.5,117 C235.5,117 237.5,119 237.5,122 C237.5,119 239.5,117 242.5,117 C245.5,117 247.5,119 247.5,122 C247.5,119 249.5,117 252.5,117 C255.5,117 257.5,119 257.5,122 C257.5,119 259.5,117 262.5,117 C265.5,117 267.5,119 267.5,122 C267.5,119 269.5,117 272.5,117 C275.5,117 277.5,119 277.5,122 C277.5,119 279.5,117 282.5,117 C285.5,117 287.5,119 287.5,122 C287.5,119 289.5,117 292.5,117 C295.5,117 297.5,119 297.5,122 C300.5,122 302.5,124 302.5,127 C302.5,130 300.5,132 297.5,132 C300.5,132 302.5,134 302.5,137 C302.5,140 300.5,142 297.5,142 C300.5,142 302.5,144 302.5,147 C302.5,150 300.5,152 297.5,152 C300.5,152 302.5,154 302.5,157 C302.5,160 300.5,162 297.5,162 C300.5,162 302.5,164 302.5,167 C302.5,170 300.5,172 297.5,172 C300.5,172 302.5,174 302.5,177 C302.5,180 300.5,182 297.5,182 C300.5,182 302.5,184 302.5,187 C302.5,190 300.5,192 297.5,192 C300.5,192 302.5,194 302.5,197 C302.5,200 300.5,202 297.5,202 C300.5,202 302.5,204 302.5,207 C302.5,210 300.5,212 297.5,212 C300.5,212 302.5,214 302.5,217 C302.5,220 300.5,222 297.5,222 C300.5,222 302.5,224 302.5,227 C302.5,230 300.5,232 297.5,232 C300.5,232 302.5,234 302.5,237 C302.5,240 300.5,242 297.5,242 C300.5,242 302.5,244 302.5,247 C302.5,250 300.5,252 297.5,252 C300.5,252 302.5,254 302.5,257 C302.5,260 300.5,262 297.5,262 C300.5,262 302.5,264 302.5,267 C302.5,270 300.5,272 297.5,272 C300.5,272 302.5,274 302.5,277 C302.5,280 300.5,282 297.5,282 C300.5,282 302.5,284 302.5,287 C302.5,290 300.5,292 297.5,292 C300.5,292 302.5,294 302.5,297 C302.5,300 300.5,302 297.5,302 C300.5,302 302.5,304 302.5,307 C302.5,310 300.5,312 297.5,312 C300.5,312 302.5,314 302.5,317 C302.5,320 300.5,322 297.5,322 C300.5,322 302.5,324 302.5,327 C302.5,330 300.5,332 297.5,332 C300.5,332 302.5,334 302.5,337 C302.5,340 300.5,342 297.5,342 C300.5,342 302.5,344 302.5,347 C302.5,350 300.5,352 297.5,352 C300.5,352 302.5,354 302.5,357 C302.5,360 300.5,362 297.5,362 C297.5,365 294.5,367 292.5,367 C289.5,367 287.5,365 287.5,362 C287.5,365 284.5,367 282.5,367 C279.5,367 277.5,365 277.5,362 C277.5,365 274.5,367 272.5,367 C269.5,367 267.5,365 267.5,362 C267.5,365 264.5,367 262.5,367 C259.5,367 257.5,365 257.5,362 C257.5,365 254.5,367 252.5,367 C249.5,367 247.5,365 247.5,362 C247.5,365 244.5,367 242.5,367 C239.5,367 237.5,365 237.5,362 C237.5,365 234.5,367 232.5,367 C229.5,367 227.5,365 227.5,362 C227.5,365 224.5,367 222.5,367 C219.5,367 217.5,365 217.5,362 C217.5,365 214.5,367 212.5,367 C209.5,367 207.5,365 207.5,362 C207.5,365 204.5,367 202.5,367 C199.5,367 197.5,365 197.5,362 C197.5,365 194.5,367 192.5,367 C189.5,367 187.5,365 187.5,362 C187.5,365 184.5,367 182.5,367 C179.5,367 177.5,365 177.5,362 C177.5,365 174.5,367 172.5,367 C169.5,367 167.5,365 167.5,362 C167.5,365 164.5,367 162.5,367 C159.5,367 157.5,365 157.5,362 C157.5,365 154.5,367 152.5,367 C149.5,367 147.5,365 147.5,362 C147.5,365 144.5,367 142.5,367 C139.5,367 137.5,365 137.5,362 C137.5,365 134.5,367 132.5,367 C129.5,367 127.5,365 127.5,362 C127.5,365 124.5,367 122.5,367 C119.5,367 117.5,365 117.5,362 C117.5,365 114.5,367 112.5,367 C109.5,367 107.5,365 107.5,362 C107.5,365 104.5,367 102.5,367 C99.5,367 97.5,365 97.5,362 C97.5,365 94.5,367 92.5,367 C89.5,367 87.5,365 87.5,362 C84.5,362 82.5,360 82.5,357 C82.5,354 84.5,352 87.5,352 C84.5,352 82.5,350 82.5,347 C82.5,344 84.5,342 87.5,342 C84.5,342 82.5,340 82.5,337 C82.5,334 84.5,332 87.5,332 C84.5,332 82.5,330 82.5,327 C82.5,324 84.5,322 87.5,322 C84.5,322 82.5,320 82.5,317 C82.5,314 84.5,312 87.5,312 C84.5,312 82.5,310 82.5,307 C82.5,304 84.5,302 87.5,302 C84.5,302 82.5,300 82.5,297 C82.5,294 84.5,292 87.5,292 C84.5,292 82.5,290 82.5,287 C82.5,284 84.5,282 87.5,282 C84.5,282 82.5,280 82.5,277 C82.5,274 84.5,272 87.5,272 C84.5,272 82.5,270 82.5,267 C82.5,264 84.5,262 87.5,262 C84.5,262 82.5,260 82.5,257 C82.5,254 84.5,252 87.5,252 C84.5,252 82.5,250 82.5,247 C82.5,244 84.5,242 87.5,242 C84.5,242 82.5,240 82.5,237 C82.5,234 84.5,232 87.5,232 C84.5,232 82.5,230 82.5,227 C82.5,224 84.5,222 87.5,222 C84.5,222 82.5,220 82.5,217 C82.5,214 84.5,212 87.5,212 C84.5,212 82.5,210 82.5,207 C82.5,204 84.5,202 87.5,202 C84.5,202 82.5,200 82.5,197 C82.5,194 84.5,192 87.5,192 C84.5,192 82.5,190 82.5,187 C82.5,184 84.5,182 87.5,182 C84.5,182 82.5,180 82.5,177 C82.5,174 84.5,172 87.5,172 C84.5,172 82.5,170 82.5,167 C82.5,164 84.5,162 87.5,162 C84.5,162 82.5,160 82.5,157 C82.5,154 84.5,152 87.5,152 C84.5,152 82.5,150 82.5,147 C82.5,144 84.5,142 87.5,142 C84.5,142 82.5,140 82.5,137 C82.5,134 84.5,132 87.5,132 C84.5,132 82.5,130 82.5,127 C82.5,124 84.5,122 87.5,122 " fill="#FFFFFF" filter="url(#f3p8u34)" style="stroke: #000000; stroke-width: 2.0;"/><text fill="#000000" font-family="sans-serif" font-size="14" font-weight="bold" lengthAdjust="spacingAndGlyphs" textLength="42" x="168.5" y="141.5352">Cloud</text><!--cluster dbserver--><polygon fill="#FFFFFF" filter="url(#f3p8u34)" points="124.5,176,134.5,166,262.5,166,262.5,330,252.5,340,124.5,340,124.5,176" style="stroke: #000000; stroke-width: 2.0;"/><line style="stroke: #000000; stroke-width: 2.0;" x1="252.5" x2="261.5" y1="176" y2="167"/><line style="stroke: #000000; stroke-width: 2.0;" x1="124.5" x2="252.5" y1="176" y2="176"/><line style="stroke: #000000; stroke-width: 2.0;" x1="252.5" x2="252.5" y1="176" y2="340"/><text fill="#000000" font-family="sans-serif" font-size="14" font-weight="bold" lengthAdjust="spacingAndGlyphs" textLength="62" x="158.5" y="192.5352">dbserver</text><!--cluster DB--><path d="M153.5,224 C153.5,214 193.5,214 193.5,214 C193.5,214 233.5,214 233.5,224 L233.5,306 C233.5,316 193.5,316 193.5,316 C193.5,316 153.5,316 153.5,306 L153.5,224 " fill="#FFFFFF" filter="url(#f3p8u34)" style="stroke: #000000; stroke-width: 2.0;"/><path d="M153.5,224 C153.5,234 193.5,234 193.5,234 C193.5,234 233.5,234 233.5,224 " fill="none" style="stroke: #000000; stroke-width: 2.0;"/><text fill="#000000" font-family="sans-serif" font-size="14" font-weight="bold" lengthAdjust="spacingAndGlyphs" textLength="20" x="183.5" y="248.5352">DB</text><!--entity APP--><rect fill="#FEFECE" filter="url(#f3p8u34)" height="36.4883" style="stroke: #A80036; stroke-width: 1.5;" width="48" x="169.5" y="264"/><rect fill="#FEFECE" height="5" style="stroke: #A80036; stroke-width: 1.5;" width="10" x="164.5" y="269"/><rect fill="#FEFECE" height="5" style="stroke: #A80036; stroke-width: 1.5;" width="10" x="164.5" y="290.4883"/><text fill="#0000FF" font-family="sans-serif" font-size="14" lengthAdjust="spacingAndGlyphs" text-decoration="underline" textLength="28" x="179.5" y="287.5352">App</text><line style="stroke: #0000FF; stroke-width: 1.0;" x1="179.5" x2="207.5" y1="289.5352" y2="289.5352"/><!--entity User--><ellipse cx="229.5" cy="18" fill="#FEFECE" filter="url(#f3p8u34)" rx="8" ry="8" style="stroke: #A80036; stroke-width: 2.0;"/><path d="M229.5,26 L229.5,53 M216.5,34 L242.5,34 M229.5,53 L216.5,68 M229.5,53 L242.5,68 " fill="#FEFECE" filter="url(#f3p8u34)" style="stroke: #A80036; stroke-width: 2.0;"/><text fill="#000000" font-family="sans-serif" font-size="14" lengthAdjust="spacingAndGlyphs" textLength="31" x="214" y="88.5352">User</text><!--entity Component--><rect fill="#FEFECE" filter="url(#f3p8u34)" height="36.4883" style="stroke: #A80036; stroke-width: 1.5;" width="101" x="280" y="31.5"/><rect fill="#FEFECE" height="5" style="stroke: #A80036; stroke-width: 1.5;" width="10" x="275" y="36.5"/><rect fill="#FEFECE" height="5" style="stroke: #A80036; stroke-width: 1.5;" width="10" x="275" y="57.9883"/><text fill="#000000" font-family="sans-serif" font-size="14" lengthAdjust="spacingAndGlyphs" textLength="81" x="290" y="55.0352">Component</text><polygon fill="#FBFB77" filter="url(#f3p8u34)" points="6,29,6,69.6211,179,69.6211,179,39,169,29,6,29" style="stroke: #A80036; stroke-width: 1.0;"/><line style="stroke: #A80036; stroke-width: 1.0;" x1="169" x2="169" y1="29" y2="39"/><line style="stroke: #A80036; stroke-width: 1.0;" x1="179" x2="169" y1="39" y2="39"/><text fill="#000000" font-family="sans-serif" font-size="13" lengthAdjust="spacingAndGlyphs" textLength="85" x="16" y="46.5684">This is a note</text><a target="_top" xlink:actuate="onRequest" xlink:href="http://www.google.com" xlink:show="new" xlink:title="http://www.google.com" xlink:type="simple"><text fill="#0000FF" font-family="sans-serif" font-size="13" lengthAdjust="spacingAndGlyphs" text-decoration="underline" textLength="152" x="12" y="61.8789">http://www.google.com</text><line style="stroke: #0000FF; stroke-width: 1.0;" x1="12" x2="164" y1="63.8789" y2="63.8789"/></a><path d="M92.5,70.152 C92.5,77.0109 92.5,85.3742 92.5,94.7678 C92.5,99.4646 92.5,104.419 92.5,109.5718 C92.5,110.86 92.5,112.1605 92.5,113.4726 C92.5,113.8006 92.5,114.1293 92.5,114.4588 " fill="none" style="stroke: #A80036; stroke-width: 1.0; stroke-dasharray: 7.0,7.0;"/></g></svg>